<svg viewBox="0 0 800 450" xmlns="http://www.w3.org/2000/svg" role="img" aria-label="Golf course at dusk">
  <defs>
    <linearGradient id="skyDusk" x1="0" y1="0" x2="0" y2="1">
      <stop offset="0%" stop-color="#0B1F2A"/>
      <stop offset="60%" stop-color="#173544"/>
      <stop offset="100%" stop-color="#3A5A63"/>
    </linearGradient>
    <linearGradient id="hillDusk" x1="0" y1="0" x2="0" y2="1">
      <stop offset="0%" stop-color="#062A22"/>
      <stop offset="100%" stop-color="#021613"/>
    </linearGradient>
  </defs>
  <rect width="800" height="450" fill="url(#skyDusk)"/>
  <circle cx="640" cy="80" r="30" fill="#E1F5EE" opacity="0.9"/>
  <circle cx="632" cy="74" r="26" fill="#0B1F2A"/>
  <circle cx="120" cy="60" r="2" fill="#FAEEDA" opacity="0.8"/>
  <circle cx="220" cy="110" r="1.6" fill="#FAEEDA" opacity="0.7"/>
  <circle cx="500" cy="50" r="1.6" fill="#FAEEDA" opacity="0.6"/>
  <circle cx="720" cy="150" r="1.4" fill="#FAEEDA" opacity="0.6"/>
  <path d="M0,320 Q160,290 340,310 T700,295 T800,315 L800,450 L0,450 Z" fill="url(#hillDusk)"/>
  <rect x="250" y="300" width="46" height="34" fill="#04231D"/>
  <polygon points="248,300 273,282 298,300" fill="#04231D"/>
  <rect x="264" y="312" width="10" height="12" fill="#FAC775" opacity="0.85"/>
  <rect x="447" y="330" width="4" height="55" fill="#020F0C"/>
  <path d="M451,330 L490,342 L451,354 Z" fill="#EF9F27" opacity="0.9"/>
</svg>
