<svg viewBox="0 0 800 450" xmlns="http://www.w3.org/2000/svg" role="img" aria-label="Golf course in soft overcast light">
  <defs>
    <linearGradient id="skyOvercast" x1="0" y1="0" x2="0" y2="1">
      <stop offset="0%" stop-color="#C9D3C6"/>
      <stop offset="100%" stop-color="#E7ECE3"/>
    </linearGradient>
    <linearGradient id="hillOvercast" x1="0" y1="0" x2="0" y2="1">
      <stop offset="0%" stop-color="#5B8A78"/>
      <stop offset="100%" stop-color="#2F5347"/>
    </linearGradient>
  </defs>
  <rect width="800" height="450" fill="url(#skyOvercast)"/>
  <ellipse cx="200" cy="90" rx="150" ry="34" fill="#D7DED2" opacity="0.7"/>
  <ellipse cx="560" cy="120" rx="180" ry="30" fill="#D7DED2" opacity="0.6"/>
  <path d="M0,280 Q160,250 340,270 T700,255 T800,275 L800,450 L0,450 Z" fill="#7FA895" opacity="0.5"/>
  <path d="M0,320 Q150,295 330,315 T700,300 T800,320 L800,450 L0,450 Z" fill="url(#hillOvercast)"/>
  <ellipse cx="300" cy="365" rx="66" ry="13" fill="#EDEFE8" opacity="0.55"/>
  <ellipse cx="150" cy="390" rx="50" ry="30" fill="#E1DCC6" opacity="0.6"/>
  <rect x="447" y="325" width="4" height="55" fill="#243A31"/>
  <path d="M451,325 L490,337 L451,349 Z" fill="#EF9F27"/>
</svg>
