<svg viewBox="0 0 800 450" xmlns="http://www.w3.org/2000/svg" role="img" aria-label="Golf course at golden hour">
  <defs>
    <linearGradient id="skyGolden" x1="0" y1="0" x2="0" y2="1">
      <stop offset="0%" stop-color="#7A3B12"/>
      <stop offset="45%" stop-color="#D9752B"/>
      <stop offset="100%" stop-color="#F2A44C"/>
    </linearGradient>
    <radialGradient id="sunGlowGolden" cx="50%" cy="50%" r="50%">
      <stop offset="0%" stop-color="#FAEEDA" stop-opacity="1"/>
      <stop offset="55%" stop-color="#EF9F27" stop-opacity="0.5"/>
      <stop offset="100%" stop-color="#EF9F27" stop-opacity="0"/>
    </radialGradient>
    <linearGradient id="hillGolden" x1="0" y1="0" x2="0" y2="1">
      <stop offset="0%" stop-color="#4a2c10"/>
      <stop offset="100%" stop-color="#04342C"/>
    </linearGradient>
  </defs>
  <rect width="800" height="450" fill="url(#skyGolden)"/>
  <circle cx="400" cy="320" r="190" fill="url(#sunGlowGolden)"/>
  <circle cx="400" cy="320" r="52" fill="#FAEEDA"/>
  <path d="M0,330 Q100,300 210,315 Q230,270 260,320 Q290,280 320,325 L340,330 Z" fill="#04342C" opacity="0.85"/>
  <path d="M480,330 Q520,295 555,320 Q575,265 605,320 Q640,290 670,330 L690,335 Z" fill="#04342C" opacity="0.85"/>
  <path d="M0,340 Q160,310 340,330 T700,315 T800,335 L800,450 L0,450 Z" fill="url(#hillGolden)"/>
  <ellipse cx="400" cy="380" rx="70" ry="14" fill="#FAC775" opacity="0.5"/>
  <rect x="447" y="335" width="4" height="55" fill="#020F0C"/>
  <path d="M451,335 L490,347 L451,359 Z" fill="#EF9F27"/>
</svg>
